<svg viewBox="0 0 200 200" xmlns="http://www.w3.org/2000/svg">
  <path fill="#00B884" d="M32.2,-50.2C45.5,-48.2,62.6,-47.1,66.5,-38.9C70.5,-30.7,61.3,-15.3,55.9,-3.1C50.5,9.1,48.9,18.2,48.3,32.3C47.8,46.3,48.2,65.3,40.3,77.2C32.4,89,16.2,93.8,2.4,89.7C-11.5,85.6,-22.9,72.6,-35,63.1C-47,53.6,-59.7,47.7,-69.4,37.8C-79.1,27.8,-86,13.9,-81.7,2.5C-77.4,-9,-62,-17.9,-54.1,-31.1C-46.3,-44.3,-46,-61.7,-38.2,-66.9C-30.4,-72.1,-15.2,-65.2,-2.9,-60.2C9.5,-55.2,19,-52.2,32.2,-50.2Z" transform="translate(100 100)" />
</svg>
