<svg xmlns="http://www.w3.org/2000/svg" viewBox="0 0 1440 320"><path fill="#007cc7" fill-opacity="1" d="M0,192L17.1,208C34.3,224,69,256,103,266.7C137.1,277,171,267,206,229.3C240,192,274,128,309,112C342.9,96,377,128,411,154.7C445.7,181,480,203,514,202.7C548.6,203,583,181,617,160C651.4,139,686,117,720,96C754.3,75,789,53,823,69.3C857.1,85,891,139,926,138.7C960,139,994,85,1029,96C1062.9,107,1097,181,1131,197.3C1165.7,213,1200,171,1234,149.3C1268.6,128,1303,128,1337,112C1371.4,96,1406,64,1423,48L1440,32L1440,0L1422.9,0C1405.7,0,1371,0,1337,0C1302.9,0,1269,0,1234,0C1200,0,1166,0,1131,0C1097.1,0,1063,0,1029,0C994.3,0,960,0,926,0C891.4,0,857,0,823,0C788.6,0,754,0,720,0C685.7,0,651,0,617,0C582.9,0,549,0,514,0C480,0,446,0,411,0C377.1,0,343,0,309,0C274.3,0,240,0,206,0C171.4,0,137,0,103,0C68.6,0,34,0,17,0L0,0Z"></path></svg>
